<svg width="905" height="679" viewBox="0 0 905 679" fill="none" xmlns="http://www.w3.org/2000/svg">
<path d="M835.115 0H69.6725C31.3049 0 0 31.3049 0 69.6725V608.728C0 647.095 31.3049 678.4 69.6725 678.4H835.115C873.483 678.4 904.788 647.095 904.788 608.728V69.6725C904.788 31.3049 873.483 0 835.115 0ZM824.999 51.5386L457.166 366.115L89.3335 51.5386H824.999ZM853.249 608.728C853.249 618.653 845.041 626.861 835.115 626.861H69.6725C59.7465 626.861 51.5385 618.653 51.5385 608.728V87.0429L440.368 419.562C440.559 419.753 440.941 419.944 441.132 420.135C441.323 420.325 441.704 420.516 441.895 420.707C442.468 421.089 442.85 421.471 443.422 421.662C443.613 421.853 443.804 421.853 443.995 422.043C444.759 422.425 445.522 422.807 446.286 423.189C446.477 423.189 446.667 423.38 446.858 423.38C447.431 423.571 448.004 423.952 448.767 424.143C448.958 424.143 449.34 424.334 449.531 424.334C450.103 424.525 450.676 424.716 451.249 424.716C451.439 424.716 451.821 424.907 452.012 424.907C452.585 425.098 453.348 425.098 453.921 425.288C454.112 425.288 454.303 425.288 454.494 425.288C455.257 425.288 456.212 425.479 456.975 425.479C457.739 425.479 458.693 425.479 459.457 425.288C459.647 425.288 459.838 425.288 460.029 425.288C460.602 425.288 461.365 425.098 461.938 424.907C462.129 424.907 462.511 424.716 462.702 424.716C463.274 424.525 463.847 424.334 464.42 424.334C464.61 424.334 464.992 424.143 465.183 424.143C465.756 423.952 466.328 423.761 467.092 423.38C467.283 423.38 467.474 423.189 467.665 423.189C468.428 422.807 469.192 422.425 469.955 422.043C470.146 421.853 470.337 421.853 470.528 421.662C471.1 421.28 471.482 421.089 472.055 420.707C472.246 420.516 472.628 420.325 472.818 420.135C473.009 419.944 473.391 419.753 473.582 419.562L853.249 95.2509V608.728Z" fill="black"/>
</svg>
