<svg width="634" height="619" viewBox="0 0 634 619" fill="none" xmlns="http://www.w3.org/2000/svg">
<path d="M317.003 0.330566C141.95 0.330566 0 142.254 0 317.333C0 457.393 90.8309 576.219 216.786 618.136C232.629 621.07 238.445 611.259 238.445 602.886C238.445 595.327 238.151 570.356 238.014 543.867C149.824 563.043 131.215 506.465 131.215 506.465C116.795 469.824 96.0173 460.081 96.0173 460.081C67.2557 440.406 98.1854 440.81 98.1854 440.81C130.018 443.047 146.779 473.477 146.779 473.477C175.053 521.94 220.938 507.93 239.028 499.83C241.873 479.341 250.088 465.357 259.154 457.44C188.743 449.425 114.726 422.243 114.726 300.776C114.726 266.167 127.11 237.888 147.388 215.688C144.097 207.704 133.246 175.462 150.459 131.797C150.459 131.797 177.079 123.277 237.657 164.291C262.944 157.268 290.063 153.745 317.003 153.624C343.943 153.745 371.082 157.268 396.416 164.291C456.921 123.277 483.504 131.797 483.504 131.797C500.759 175.462 489.903 207.704 486.612 215.688C506.938 237.888 519.237 266.167 519.237 300.776C519.237 422.532 445.078 449.341 374.489 457.189C385.859 467.026 395.991 486.318 395.991 515.893C395.991 558.308 395.623 592.445 395.623 602.886C395.623 611.322 401.329 621.207 417.398 618.094C543.285 576.13 634 457.346 634 317.333C634 142.254 492.071 0.330566 317.003 0.330566ZM118.728 451.907C118.03 453.482 115.552 453.955 113.295 452.873C110.995 451.839 109.704 449.692 110.449 448.112C111.132 446.49 113.615 446.039 115.909 447.125C118.213 448.159 119.526 450.327 118.728 451.907ZM134.321 465.821C132.809 467.223 129.854 466.572 127.848 464.356C125.775 462.146 125.386 459.191 126.919 457.768C128.478 456.367 131.344 457.023 133.423 459.233C135.497 461.469 135.901 464.404 134.321 465.821ZM145.018 483.623C143.076 484.972 139.9 483.707 137.937 480.888C135.994 478.069 135.994 474.688 137.979 473.334C139.947 471.979 143.076 473.197 145.065 475.995C147.002 478.861 147.002 482.242 145.018 483.623ZM163.11 504.24C161.372 506.156 157.671 505.641 154.963 503.027C152.191 500.471 151.419 496.843 153.162 494.927C154.921 493.006 158.643 493.547 161.372 496.14C164.123 498.691 164.963 502.345 163.11 504.24ZM186.491 511.2C185.725 513.683 182.161 514.811 178.57 513.756C174.985 512.67 172.638 509.761 173.363 507.252C174.108 504.753 177.688 503.578 181.305 504.706C184.885 505.788 187.237 508.675 186.491 511.2ZM213.101 514.152C213.19 516.766 210.145 518.934 206.376 518.981C202.586 519.065 199.52 516.95 199.478 514.378C199.478 511.737 202.455 509.59 206.245 509.527C210.014 509.454 213.101 511.554 213.101 514.152ZM239.241 513.15C239.693 515.701 237.073 518.321 233.33 519.019C229.651 519.691 226.244 518.116 225.776 515.586C225.32 512.971 227.986 510.352 231.661 509.675C235.409 509.024 238.764 510.557 239.241 513.15Z" fill="#161614"/>
</svg>
