<svg width="672" height="672" viewBox="0 0 672 672" fill="none" xmlns="http://www.w3.org/2000/svg">
<path fill-rule="evenodd" clip-rule="evenodd" d="M335.895 0.00012207C244.671 0.00012207 233.232 0.38678 197.405 2.02148C161.653 3.6521 137.236 9.33075 115.87 17.6334C93.7823 26.2174 75.0505 37.7028 56.3765 56.3762C37.7031 75.0495 26.2177 93.7828 17.6339 115.871C9.33073 137.236 3.6526 161.653 2.02084 197.405C0.386459 233.232 0 244.671 0 335.895C0 427.117 0.386459 438.556 2.02084 474.383C3.6526 510.135 9.33073 534.552 17.6339 555.917C26.2177 578.005 37.7031 596.738 56.3765 615.412C75.0505 634.085 93.7823 645.571 115.87 654.155C137.236 662.457 161.653 668.136 197.405 669.767C233.232 671.401 244.671 671.788 335.895 671.788C427.117 671.788 438.556 671.401 474.383 669.767C510.135 668.136 534.552 662.457 555.917 654.155C578.005 645.571 596.737 634.085 615.412 615.412C634.085 596.738 645.571 578.005 654.155 555.917C662.457 534.552 668.136 510.135 669.767 474.383C671.401 438.556 671.788 427.117 671.788 335.895C671.788 244.671 671.401 233.232 669.767 197.405C668.136 161.653 662.457 137.236 654.155 115.871C645.571 93.7828 634.085 75.0495 615.412 56.3762C596.737 37.7028 578.005 26.2174 555.917 17.6334C534.552 9.33075 510.135 3.6521 474.383 2.02148C438.556 0.38678 427.117 0.00012207 335.895 0.00012207ZM335.895 60.5215C425.581 60.5215 436.205 60.8641 471.624 62.4801C504.373 63.9734 522.159 69.4455 533.995 74.0455C549.673 80.1388 560.863 87.4175 572.616 99.1708C584.371 110.925 591.649 122.115 597.743 137.793C602.343 149.629 607.815 167.415 609.308 200.164C610.924 235.583 611.267 246.207 611.267 335.895C611.267 425.581 610.924 436.205 609.308 471.624C607.815 504.373 602.343 522.159 597.743 533.995C591.649 549.674 584.371 560.863 572.616 572.616C560.863 584.371 549.673 591.65 533.995 597.743C522.159 602.343 504.373 607.815 471.624 609.308C436.211 610.924 425.588 611.267 335.895 611.267C246.2 611.267 235.579 610.924 200.164 609.308C167.415 607.815 149.629 602.343 137.793 597.743C122.115 591.65 110.925 584.371 99.1719 572.616C87.4183 560.863 80.1385 549.674 74.0453 533.995C69.4453 522.159 63.974 504.373 62.4797 471.624C60.8636 436.205 60.5213 425.581 60.5213 335.895C60.5213 246.207 60.8636 235.583 62.4797 200.164C63.974 167.415 69.4453 149.629 74.0453 137.793C80.1385 122.115 87.4177 110.925 99.1713 99.1721C110.925 87.4174 122.115 80.1388 137.793 74.0455C149.629 69.4455 167.415 63.9734 200.164 62.4801C235.583 60.8641 246.207 60.5215 335.895 60.5215ZM335.895 447.859C274.057 447.859 223.929 397.731 223.929 335.895C223.929 274.057 274.057 223.93 335.895 223.93C397.731 223.93 447.859 274.057 447.859 335.895C447.859 397.731 397.731 447.859 335.895 447.859ZM335.895 163.408C240.632 163.408 163.408 240.632 163.408 335.895C163.408 431.156 240.632 508.38 335.895 508.38C431.156 508.38 508.38 431.156 508.38 335.895C508.38 240.632 431.156 163.408 335.895 163.408ZM515.195 196.9C537.456 196.9 555.503 178.855 555.503 156.594C555.503 134.332 537.456 116.285 515.195 116.285C492.935 116.285 474.888 134.332 474.888 156.594C474.888 178.855 492.935 196.9 515.195 196.9Z" fill="#100F0D"/>
</svg>
