<svg width="808" height="657" viewBox="0 0 808 657" fill="none" xmlns="http://www.w3.org/2000/svg">
<path d="M807.667 78.0376C777.953 91.2187 746.013 100.123 712.499 104.129C746.704 83.6226 772.981 51.1503 785.355 12.455C753.335 31.4473 717.874 45.2341 680.128 52.6647C649.905 20.459 606.84 0.340016 559.18 0.340016C467.671 0.340016 393.476 74.5282 393.476 166.037C393.476 179.024 394.941 191.672 397.767 203.799C260.053 196.89 137.953 130.92 56.2289 30.6679C41.9639 55.1402 33.7927 83.6064 33.7927 113.975C33.7927 171.464 63.0452 222.182 107.51 251.896C80.3471 251.036 54.7953 243.581 32.4565 231.171C32.4407 231.862 32.4407 232.552 32.4407 233.255C32.4407 313.538 89.5593 380.507 165.36 395.734C151.458 399.52 136.819 401.547 121.707 401.547C111.029 401.547 100.649 400.506 90.5297 398.573C111.616 464.401 172.811 512.313 245.321 513.644C188.611 558.091 117.164 584.581 39.5283 584.581C26.1529 584.581 12.9621 583.794 0 582.264C73.3305 629.278 160.431 656.715 254.006 656.715C558.792 656.715 725.466 404.223 725.466 185.251C725.466 178.067 725.301 170.923 724.982 163.816C757.361 140.45 785.452 111.269 807.667 78.0376Z" fill="black"/>
</svg>
